Coordinates
version=1
nRows=9
nColumns=24
inDegrees=yes

Units are S.I. units (second, meters, Newtons, ...)
Angles are in degrees.

endheader
time	pelvis_tilt	pelvis_list	pelvis_rotation	pelvis_tx	pelvis_ty	pelvis_tz	hip_flexion_r	hip_adduction_r	hip_rotation_r	knee_angle_r	ankle_angle_r	subtalar_angle_r	mtp_angle_r	hip_flexion_l	hip_adduction_l	hip_rotation_l	knee_angle_l	ankle_angle_l	subtalar_angle_l	mtp_angle_l	lumbar_extension	lumbar_bending	lumbar_rotation
      5.38000000	     -0.80097326	      4.36916838	      2.14262543	      0.84232490	      1.00616905	     -0.27101883	     22.75494508	     -1.69819009	      4.03108172	     -6.85070475	     11.95952499	     -3.55814683	      0.00000000	    -17.11098590	      8.40917870	      4.14368061	     -6.71001971	     16.42796178	     -3.35606338	      0.00000000	    -14.13269418	     -4.02992300	     -9.37752818
      5.38500000	     -0.74865295	      4.29387692	      2.17913313	      0.84934395	      1.00574974	     -0.27086024	     22.81449669	     -1.55648064	      3.78658124	     -7.81756368	     12.02959267	     -3.03613717	      0.00000000	    -17.11612904	      8.26223925	      3.67477037	     -7.59107522	     16.59047013	     -2.55767510	      0.00000000	    -14.15947775	     -3.90199028	     -9.28621770
      5.39000000	     -0.71224776	      4.19097597	      2.22235196	      0.85641835	      1.00537750	     -0.27070933	     22.87659684	     -1.39542784	      3.55819871	     -8.77238445	     11.96606118	     -2.55603638	      0.00000000	    -17.08572464	      8.07928183	      3.18104167	     -8.50395247	     16.70786336	     -1.74967267	      0.00000000	    -14.16040962	     -3.73855586	     -9.19981017
      5.39500000	     -0.68850619	      4.06371003	      2.27342748	      0.86351068	      1.00506575	     -0.27055337	     22.93883982	     -1.21845567	      3.36236073	     -9.69505711	     11.76713716	     -2.14422808	      0.00000000	    -17.01729553	      7.86105575	      2.66235623	     -9.45561967	     16.78592108	     -0.92335526	      0.00000000	    -14.14376291	     -3.55143926	     -9.10264818
      5.40000000	     -0.67605861	      3.89949013	      2.31572283	      0.87062970	      1.00485745	     -0.27037032	     23.00060651	     -1.00389671	      3.17704563	    -10.56459051	     11.39751627	     -1.84391450	      0.00000000	    -16.91844248	      7.59837118	      2.12947764	    -10.42950298	     16.77999929	     -0.10399939	      0.00000000	    -14.10915752	     -3.32190976	     -8.99355519
      5.40500000	     -0.67250321	      3.70810414	      2.36098541	      0.87771485	      1.00471571	     -0.27019135	     23.06288393	     -0.76624828	      3.08423212	    -11.38877848	     10.94788354	     -1.68400664	      0.00000000	    -16.76169106	      7.29827812	      1.54641343	    -11.48403812	     16.76764064	      0.75430995	      0.00000000	    -14.07396587	     -3.05862909	     -8.85875897
      5.41000000	     -0.67982574	      3.47559252	      2.39615708	      0.88483329	      1.00469733	     -0.26998140	     23.12372151	     -0.48223525	      3.03307320	    -12.15838374	     10.38492662	     -1.69290042	      0.00000000	    -16.57252029	      6.94773350	      0.94392474	    -12.56199042	     16.65099777	      1.59219263	      0.00000000	    -14.01744375	     -2.75693102	     -8.70742773
      5.41500000	     -0.69121306	      3.21643599	      2.42895706	      0.89200212	      1.00480962	     -0.26975673	     23.17376478	     -0.16891522	      3.01719736	    -12.88260167	      9.77984659	     -1.85695650	      0.00000000	    -16.35527348	      6.55819031	      0.32427748	    -13.67064777	     16.41003919	      2.41198954	      0.00000000	    -13.94582784	     -2.43276793	     -8.55139740
      5.42000000	     -0.69851207	      2.94810940	      2.45141965	      0.89913686	      1.00499597	     -0.26952933	     23.21533087	      0.16295443	      3.12088197	    -13.59367637	      9.21013055	     -2.19133347	      0.00000000	    -16.09376757	      6.14964087	     -0.32182520	    -14.85950356	     16.11722965	      3.23699974	      0.00000000	    -13.88815837	     -2.09373966	     -8.36753473
